<?xml version="1.0" encoding="UTF-8" standalone="no"?>
<!-- Created with Inkscape (http://www.inkscape.org/) -->

<svg
   xmlns:dc="http://purl.org/dc/elements/1.1/"
   xmlns:cc="http://creativecommons.org/ns#"
   xmlns:rdf="http://www.w3.org/1999/02/22-rdf-syntax-ns#"
   xmlns:svg="http://www.w3.org/2000/svg"
   xmlns="http://www.w3.org/2000/svg"
   xmlns:xlink="http://www.w3.org/1999/xlink"
   xmlns:sodipodi="http://sodipodi.sourceforge.net/DTD/sodipodi-0.dtd"
   xmlns:inkscape="http://www.inkscape.org/namespaces/inkscape"
   version="1.0"
   width="96"
   height="96"
   id="svg2408"
   style="display:inline"
   inkscape:version="0.48.4 r9939"
   sodipodi:docname="booksorg.svg">
  <metadata
     id="metadata263">
    <rdf:RDF>
      <cc:Work
         rdf:about="">
        <dc:format>image/svg+xml</dc:format>
        <dc:type
           rdf:resource="http://purl.org/dc/dcmitype/StillImage" />
        <dc:title></dc:title>
      </cc:Work>
    </rdf:RDF>
  </metadata>
  <sodipodi:namedview
     pagecolor="#ffffff"
     bordercolor="#666666"
     borderopacity="1"
     objecttolerance="10"
     gridtolerance="10"
     guidetolerance="10"
     inkscape:pageopacity="0"
     inkscape:pageshadow="2"
     inkscape:window-width="640"
     inkscape:window-height="480"
     id="namedview261"
     showgrid="false"
     inkscape:zoom="1.07"
     inkscape:cx="48"
     inkscape:cy="48"
     inkscape:window-x="69"
     inkscape:window-y="61"
     inkscape:window-maximized="0"
     inkscape:current-layer="layer1" />
  <defs
     id="defs2410">
    <linearGradient
       id="linearGradient4689">
      <stop
         id="stop4691"
         style="stop-color:#333333;stop-opacity:1"
         offset="0" />
      <stop
         id="stop4693"
         style="stop-color:#8e8e8e;stop-opacity:1"
         offset="1" />
    </linearGradient>
    <linearGradient
       id="linearGradient4386">
      <stop
         id="stop4388"
         style="stop-color:#ffffff;stop-opacity:1"
         offset="0" />
      <stop
         id="stop4390"
         style="stop-color:#ffffff;stop-opacity:0"
         offset="1" />
    </linearGradient>
    <linearGradient
       id="linearGradient4365">
      <stop
         id="stop4367"
         style="stop-color:#afc9e4;stop-opacity:1"
         offset="0" />
      <stop
         id="stop4373"
         style="stop-color:#d7e4f1;stop-opacity:1"
         offset="0.6079039" />
      <stop
         id="stop4369"
         style="stop-color:#ffffff;stop-opacity:0"
         offset="1" />
    </linearGradient>
    <linearGradient
       id="linearGradient4180">
      <stop
         id="stop4182"
         style="stop-color:#ffffff;stop-opacity:1"
         offset="0" />
      <stop
         id="stop4184"
         style="stop-color:#ffffff;stop-opacity:0"
         offset="1" />
    </linearGradient>
    <linearGradient
       x1="45.447727"
       y1="92.539597"
       x2="45.447727"
       y2="7.0165396"
       id="ButtonShadow"
       gradientUnits="userSpaceOnUse"
       gradientTransform="scale(1.0058652,0.994169)">
      <stop
         id="stop3750"
         style="stop-color:#000000;stop-opacity:1"
         offset="0" />
      <stop
         id="stop3752"
         style="stop-color:#000000;stop-opacity:0.58823532"
         offset="1" />
    </linearGradient>
    <linearGradient
       id="linearGradient3737">
      <stop
         id="stop3739"
         style="stop-color:#ffffff;stop-opacity:1"
         offset="0" />
      <stop
         id="stop3741"
         style="stop-color:#ffffff;stop-opacity:0"
         offset="1" />
    </linearGradient>
    <linearGradient
       id="linearGradient3700">
      <stop
         id="stop3702"
         style="stop-color:#73d019;stop-opacity:1"
         offset="0" />
      <stop
         id="stop3704"
         style="stop-color:#3a6d0a;stop-opacity:1"
         offset="1" />
    </linearGradient>
    <filter
       color-interpolation-filters="sRGB"
       id="filter3174">
      <feGaussianBlur
         id="feGaussianBlur3176"
         stdDeviation="1.71" />
    </filter>
    <linearGradient
       x1="36.357143"
       y1="6"
       x2="36.357143"
       y2="63.893143"
       id="linearGradient3188"
       xlink:href="#linearGradient3737"
       gradientUnits="userSpaceOnUse" />
    <filter
       x="-0.192"
       y="-0.192"
       width="1.3839999"
       height="1.3839999"
       color-interpolation-filters="sRGB"
       id="filter3794">
      <feGaussianBlur
         id="feGaussianBlur3796"
         stdDeviation="5.28" />
    </filter>
    <linearGradient
       x1="48"
       y1="20.220806"
       x2="48"
       y2="138.66119"
       id="linearGradient3613"
       xlink:href="#linearGradient3737"
       gradientUnits="userSpaceOnUse" />
    <radialGradient
       cx="48"
       cy="90.171875"
       r="42"
       fx="48"
       fy="90.171875"
       id="radialGradient3619"
       xlink:href="#linearGradient3737"
       gradientUnits="userSpaceOnUse"
       gradientTransform="matrix(1.1573129,0,0,0.99590774,-7.5510206,0.19713193)" />
    <clipPath
       id="clipPath3613">
      <rect
         width="84"
         height="84"
         rx="6"
         ry="6"
         x="6"
         y="6"
         id="rect3615"
         style="fill:#ffffff;fill-opacity:1;fill-rule:nonzero;stroke:none" />
    </clipPath>
    <linearGradient
       x1="45.447727"
       y1="92.539597"
       x2="45.447727"
       y2="7.0165396"
       id="ButtonShadow-0"
       gradientUnits="userSpaceOnUse"
       gradientTransform="matrix(1.0058652,0,0,0.994169,100,0)">
      <stop
         id="stop3750-8"
         style="stop-color:#000000;stop-opacity:1"
         offset="0" />
      <stop
         id="stop3752-5"
         style="stop-color:#000000;stop-opacity:0.58823532"
         offset="1" />
    </linearGradient>
    <linearGradient
       x1="32.251034"
       y1="6.1317081"
       x2="32.251034"
       y2="90.238609"
       id="linearGradient3780"
       xlink:href="#ButtonShadow-0"
       gradientUnits="userSpaceOnUse"
       gradientTransform="matrix(1.0238095,0,0,1.0119048,-1.1428571,-98.071429)" />
    <linearGradient
       x1="32.251034"
       y1="6.1317081"
       x2="32.251034"
       y2="90.238609"
       id="linearGradient3772"
       xlink:href="#ButtonShadow-0"
       gradientUnits="userSpaceOnUse"
       gradientTransform="matrix(1.0238095,0,0,1.0119048,-1.1428571,-98.071429)" />
    <linearGradient
       x1="32.251034"
       y1="6.1317081"
       x2="32.251034"
       y2="90.238609"
       id="linearGradient3725"
       xlink:href="#ButtonShadow-0"
       gradientUnits="userSpaceOnUse"
       gradientTransform="matrix(1.0238095,0,0,1.0119048,-1.1428571,-98.071429)" />
    <linearGradient
       x1="32.251034"
       y1="6.1317081"
       x2="32.251034"
       y2="90.238609"
       id="linearGradient3721"
       xlink:href="#ButtonShadow-0"
       gradientUnits="userSpaceOnUse"
       gradientTransform="translate(0,-97)" />
    <linearGradient
       x1="32.251034"
       y1="6.1317081"
       x2="32.251034"
       y2="90.238609"
       id="linearGradient3026"
       xlink:href="#ButtonShadow-0"
       gradientUnits="userSpaceOnUse"
       gradientTransform="matrix(1.0238095,0,0,1.0119048,-1.1428571,-98.071429)" />
    <linearGradient
       id="linearGradient12684">
      <stop
         id="stop12686"
         style="stop-color:#ffffff;stop-opacity:1"
         offset="0" />
      <stop
         id="stop12692"
         style="stop-color:#ffffff;stop-opacity:0.84536082"
         offset="0.34999999" />
      <stop
         id="stop12688"
         style="stop-color:#ffffff;stop-opacity:0"
         offset="1" />
    </linearGradient>
    <linearGradient
       id="linearGradient3657">
      <stop
         id="stop3659"
         style="stop-color:#ffffff;stop-opacity:1"
         offset="0" />
      <stop
         id="stop3661"
         style="stop-color:#ffffff;stop-opacity:0"
         offset="1" />
    </linearGradient>
    <linearGradient
       id="linearGradient12684-8">
      <stop
         id="stop12686-1"
         style="stop-color:#ffffff;stop-opacity:1"
         offset="0" />
      <stop
         id="stop12692-0"
         style="stop-color:#ffffff;stop-opacity:0.84536082"
         offset="0.34999999" />
      <stop
         id="stop12688-7"
         style="stop-color:#ffffff;stop-opacity:0"
         offset="1" />
    </linearGradient>
    <linearGradient
       id="linearGradient12684-9">
      <stop
         id="stop12686-8"
         style="stop-color:#ffffff;stop-opacity:1"
         offset="0" />
      <stop
         id="stop12692-9"
         style="stop-color:#ffffff;stop-opacity:0.84536082"
         offset="0.34999999" />
      <stop
         id="stop12688-3"
         style="stop-color:#ffffff;stop-opacity:0"
         offset="1" />
    </linearGradient>
    <linearGradient
       x1="98"
       y1="240.92043"
       x2="420"
       y2="240.92043"
       id="linearGradient3963"
       xlink:href="#linearGradient3657"
       gradientUnits="userSpaceOnUse"
       gradientTransform="matrix(0.543478,-0.941332,0.941332,0.543478,-156.6701,314.8289)" />
    <linearGradient
       x1="98"
       y1="240.92043"
       x2="420"
       y2="240.92043"
       id="linearGradient3965"
       xlink:href="#linearGradient3657"
       gradientUnits="userSpaceOnUse"
       gradientTransform="matrix(-0.941332,0.543478,0.543478,0.941332,334.2253,-173.0667)" />
    <linearGradient
       x1="98"
       y1="240.92043"
       x2="420"
       y2="240.92043"
       id="linearGradient3967"
       xlink:href="#linearGradient3657"
       gradientUnits="userSpaceOnUse"
       gradientTransform="matrix(0.941332,-0.543478,-0.543478,-0.941332,150.7744,625.2735)" />
    <linearGradient
       x1="98"
       y1="240.92043"
       x2="420"
       y2="240.92043"
       id="linearGradient3969"
       xlink:href="#linearGradient3657"
       gradientUnits="userSpaceOnUse"
       gradientTransform="matrix(-0.543478,0.941332,-0.941332,-0.543478,641.6699,131.3779)" />
    <radialGradient
       cx="246.35255"
       cy="226.88303"
       r="154.3577"
       fx="246.35255"
       fy="226.88303"
       id="radialGradient3971"
       xlink:href="#linearGradient3657"
       gradientUnits="userSpaceOnUse"
       gradientTransform="matrix(1,-0.57734,0.12401,0.214795,-28.13556,320.3787)" />
    <radialGradient
       cx="246.35255"
       cy="226.88303"
       r="154.3577"
       fx="246.35255"
       fy="226.88303"
       id="radialGradient3973"
       xlink:href="#linearGradient3657"
       gradientUnits="userSpaceOnUse"
       gradientTransform="matrix(-0.57734,-1,0.214795,-0.12401,339.8483,501.3712)" />
    <radialGradient
       cx="156.5"
       cy="148.5"
       r="19.5"
       fx="156.5"
       fy="148.5"
       id="radialGradient3975"
       xlink:href="#linearGradient12684"
       gradientUnits="userSpaceOnUse" />
    <radialGradient
       cx="156.5"
       cy="148.5"
       r="19.5"
       fx="156.5"
       fy="148.5"
       id="radialGradient3979"
       xlink:href="#linearGradient12684"
       gradientUnits="userSpaceOnUse" />
    <radialGradient
       cx="156.5"
       cy="148.5"
       r="19.5"
       fx="156.5"
       fy="148.5"
       id="radialGradient3981"
       xlink:href="#linearGradient12684"
       gradientUnits="userSpaceOnUse" />
    <radialGradient
       cx="156.5"
       cy="148.5"
       r="19.5"
       fx="156.5"
       fy="148.5"
       id="radialGradient3983"
       xlink:href="#linearGradient12684"
       gradientUnits="userSpaceOnUse" />
    <radialGradient
       cx="156.5"
       cy="148.5"
       r="19.5"
       fx="156.5"
       fy="148.5"
       id="radialGradient3985"
       xlink:href="#linearGradient12684"
       gradientUnits="userSpaceOnUse" />
    <radialGradient
       cx="156.5"
       cy="148.5"
       r="19.5"
       fx="156.5"
       fy="148.5"
       id="radialGradient3987"
       xlink:href="#linearGradient12684"
       gradientUnits="userSpaceOnUse" />
    <radialGradient
       cx="156.5"
       cy="148.5"
       r="19.5"
       fx="156.5"
       fy="148.5"
       id="radialGradient3989"
       xlink:href="#linearGradient12684"
       gradientUnits="userSpaceOnUse" />
    <radialGradient
       cx="156.5"
       cy="148.5"
       r="19.5"
       fx="156.5"
       fy="148.5"
       id="radialGradient3991"
       xlink:href="#linearGradient12684-8"
       gradientUnits="userSpaceOnUse" />
    <radialGradient
       cx="156.5"
       cy="148.5"
       r="19.5"
       fx="156.5"
       fy="148.5"
       id="radialGradient3993"
       xlink:href="#linearGradient12684-8"
       gradientUnits="userSpaceOnUse" />
    <radialGradient
       cx="156.5"
       cy="148.5"
       r="19.5"
       fx="156.5"
       fy="148.5"
       id="radialGradient3995"
       xlink:href="#linearGradient12684-8"
       gradientUnits="userSpaceOnUse" />
    <radialGradient
       cx="156.5"
       cy="148.5"
       r="19.5"
       fx="156.5"
       fy="148.5"
       id="radialGradient3997"
       xlink:href="#linearGradient12684-9"
       gradientUnits="userSpaceOnUse" />
    <radialGradient
       cx="156.5"
       cy="148.5"
       r="19.5"
       fx="156.5"
       fy="148.5"
       id="radialGradient3999"
       xlink:href="#linearGradient12684-9"
       gradientUnits="userSpaceOnUse" />
    <radialGradient
       cx="156.5"
       cy="148.5"
       r="19.5"
       fx="156.5"
       fy="148.5"
       id="radialGradient4001"
       xlink:href="#linearGradient12684-9"
       gradientUnits="userSpaceOnUse" />
    <clipPath
       id="clipPath4005">
      <rect
         width="54.138874"
         height="54.138874"
         rx="3.8670626"
         ry="3.8670626"
         x="20.83807"
         y="21.023052"
         id="rect4007"
         style="fill:url(#radialGradient4009);fill-opacity:1;fill-rule:nonzero;stroke:none" />
    </clipPath>
    <radialGradient
       cx="48"
       cy="80"
       r="42"
       fx="48"
       fy="80"
       id="radialGradient4009"
       xlink:href="#linearGradient3700"
       gradientUnits="userSpaceOnUse"
       gradientTransform="matrix(0.8593472,0,0,0.64451042,6.6588406,17.15599)" />
    <linearGradient
       x1="48"
       y1="8"
       x2="48"
       y2="56"
       id="linearGradient4018"
       xlink:href="#linearGradient12684-9"
       gradientUnits="userSpaceOnUse"
       gradientTransform="matrix(1,0,0,0.83535109,-0.81355932,0.88619856)" />
    <radialGradient
       cx="48"
       cy="88.400002"
       r="42"
       fx="48"
       fy="88.400002"
       id="radialGradient4020"
       xlink:href="#linearGradient3700"
       gradientUnits="userSpaceOnUse"
       gradientTransform="matrix(1.5238096,0,0,0.95238098,-25.142861,3.8095212)" />
    <linearGradient
       id="linearGradient5537">
      <stop
         id="stop5539"
         style="stop-color:#73a0d0;stop-opacity:1"
         offset="0" />
      <stop
         id="stop5541"
         style="stop-color:#ffffff;stop-opacity:1"
         offset="1" />
    </linearGradient>
    <linearGradient
       id="linearGradient10381">
      <stop
         id="stop10383"
         style="stop-color:#3465a4;stop-opacity:1"
         offset="0" />
      <stop
         id="stop10385"
         style="stop-color:#3465a4;stop-opacity:0"
         offset="1" />
    </linearGradient>
    <linearGradient
       x1="9.1014318"
       y1="69.384567"
       x2="44.035625"
       y2="65.869286"
       id="linearGradient4088"
       xlink:href="#linearGradient5537"
       gradientUnits="userSpaceOnUse" />
    <linearGradient
       x1="9.1014318"
       y1="69.384567"
       x2="44.035625"
       y2="65.869286"
       id="linearGradient4104"
       xlink:href="#linearGradient5537"
       gradientUnits="userSpaceOnUse" />
    <linearGradient
       x1="36.133625"
       y1="71.200294"
       x2="34.322426"
       y2="68.860443"
       id="linearGradient4106"
       xlink:href="#linearGradient10381"
       gradientUnits="userSpaceOnUse" />
    <linearGradient
       x1="9.1014318"
       y1="69.384567"
       x2="44.035625"
       y2="65.869286"
       id="linearGradient4114"
       xlink:href="#linearGradient5537"
       gradientUnits="userSpaceOnUse" />
    <linearGradient
       x1="36.864983"
       y1="71.45224"
       x2="34.860695"
       y2="68.835716"
       id="linearGradient4116"
       xlink:href="#linearGradient10381"
       gradientUnits="userSpaceOnUse" />
    <linearGradient
       x1="9.1014318"
       y1="69.384567"
       x2="44.035625"
       y2="65.869286"
       id="linearGradient4124"
       xlink:href="#linearGradient5537"
       gradientUnits="userSpaceOnUse" />
    <linearGradient
       x1="37.048386"
       y1="71.500641"
       x2="35.17712"
       y2="69.033035"
       id="linearGradient4126"
       xlink:href="#linearGradient10381"
       gradientUnits="userSpaceOnUse" />
    <linearGradient
       x1="35.887863"
       y1="70.860985"
       x2="34.263149"
       y2="68.751816"
       id="linearGradient4128"
       xlink:href="#linearGradient10381"
       gradientUnits="userSpaceOnUse" />
    <linearGradient
       x1="9.1014318"
       y1="69.384567"
       x2="44.035625"
       y2="65.869286"
       id="linearGradient4136"
       xlink:href="#linearGradient5537"
       gradientUnits="userSpaceOnUse" />
    <linearGradient
       x1="37.048386"
       y1="71.500641"
       x2="35.17712"
       y2="69.033035"
       id="linearGradient4138"
       xlink:href="#linearGradient10381"
       gradientUnits="userSpaceOnUse" />
    <linearGradient
       x1="9.1014318"
       y1="69.384567"
       x2="44.035625"
       y2="65.869286"
       id="linearGradient4146"
       xlink:href="#linearGradient5537"
       gradientUnits="userSpaceOnUse" />
    <linearGradient
       x1="37.048386"
       y1="71.500641"
       x2="35.17712"
       y2="69.033035"
       id="linearGradient4148"
       xlink:href="#linearGradient10381"
       gradientUnits="userSpaceOnUse" />
    <radialGradient
       cx="61.482243"
       cy="52.375378"
       r="13.604133"
       fx="61.482243"
       fy="52.375378"
       id="radialGradient4186"
       xlink:href="#linearGradient4180"
       gradientUnits="userSpaceOnUse"
       gradientTransform="matrix(1,0,0,0.39018089,0,31.939506)" />
    <radialGradient
       cx="61.482243"
       cy="52.375378"
       r="13.604133"
       fx="61.482243"
       fy="52.375378"
       id="radialGradient4190"
       xlink:href="#linearGradient4180"
       gradientUnits="userSpaceOnUse"
       gradientTransform="matrix(1,0,0,0.39018089,0,31.939506)" />
    <linearGradient
       x1="185.18442"
       y1="178.86754"
       x2="185.18442"
       y2="162.24416"
       id="linearGradient5020"
       xlink:href="#linearGradient9111"
       gradientUnits="userSpaceOnUse" />
    <linearGradient
       id="linearGradient9111">
      <stop
         id="stop9113"
         style="stop-color:#ffffff;stop-opacity:1"
         offset="0" />
      <stop
         id="stop9115"
         style="stop-color:#ffffff;stop-opacity:0"
         offset="1" />
    </linearGradient>
    <radialGradient
       cx="185.18442"
       cy="162.24416"
       r="8.3116884"
       fx="185.18442"
       fy="162.24416"
       id="radialGradient5022"
       xlink:href="#linearGradient9111"
       gradientUnits="userSpaceOnUse"
       gradientTransform="matrix(1.765929,0,0,3.004776,-141.8381,-325.2632)" />
    <linearGradient
       x1="23.580414"
       y1="25.360611"
       x2="27.459255"
       y2="22.287554"
       id="linearGradient4277"
       xlink:href="#linearGradient5537"
       gradientUnits="userSpaceOnUse" />
    <linearGradient
       x1="21.88559"
       y1="27.665836"
       x2="25.080116"
       y2="23.700602"
       id="linearGradient4285"
       xlink:href="#linearGradient5537"
       gradientUnits="userSpaceOnUse" />
    <linearGradient
       x1="21.88559"
       y1="27.665836"
       x2="25.080116"
       y2="23.700602"
       id="linearGradient4289"
       xlink:href="#linearGradient5537"
       gradientUnits="userSpaceOnUse"
       gradientTransform="matrix(0.98577292,-0.16808257,0.16808257,0.98577292,-3.5363877,9.2268989)" />
    <linearGradient
       x1="21.88559"
       y1="27.665836"
       x2="25.080116"
       y2="23.700602"
       id="linearGradient4293"
       xlink:href="#linearGradient5537"
       gradientUnits="userSpaceOnUse"
       gradientTransform="matrix(0.86950912,-0.26068262,0.27411613,0.84215627,-2.8826283,17.907295)" />
    <linearGradient
       x1="21.88559"
       y1="27.665836"
       x2="25.080116"
       y2="23.700602"
       id="linearGradient4297"
       xlink:href="#linearGradient5537"
       gradientUnits="userSpaceOnUse"
       gradientTransform="matrix(0.82531775,-0.37795789,0.38749599,0.79637534,-2.8354874,25.102925)" />
    <linearGradient
       x1="21.88559"
       y1="27.665836"
       x2="25.080116"
       y2="23.700602"
       id="linearGradient4301"
       xlink:href="#linearGradient5537"
       gradientUnits="userSpaceOnUse"
       gradientTransform="matrix(0.70482264,-0.48371334,0.53049681,0.62504582,-1.609593,34.187183)" />
    <linearGradient
       x1="22.780287"
       y1="26.208443"
       x2="25.573374"
       y2="23.118851"
       id="linearGradient4305"
       xlink:href="#linearGradient5537"
       gradientUnits="userSpaceOnUse"
       gradientTransform="matrix(0.4566873,-0.57349307,0.51861549,0.54188878,5.3598326,40.666557)" />
    <linearGradient
       x1="22.780287"
       y1="26.208443"
       x2="25.573374"
       y2="23.118851"
       id="linearGradient4309"
       xlink:href="#linearGradient5537"
       gradientUnits="userSpaceOnUse"
       gradientTransform="matrix(0.36940784,-0.63324201,0.59119618,0.46161949,7.4087989,46.027865)" />
    <linearGradient
       x1="22.780287"
       y1="26.208443"
       x2="25.573374"
       y2="23.118851"
       id="linearGradient4313"
       xlink:href="#linearGradient5537"
       gradientUnits="userSpaceOnUse"
       gradientTransform="matrix(0.24118273,-0.69230664,0.66871494,0.33974373,10.672584,51.416745)" />
    <linearGradient
       x1="22.780287"
       y1="26.208443"
       x2="25.573374"
       y2="23.118851"
       id="linearGradient4317"
       xlink:href="#linearGradient5537"
       gradientUnits="userSpaceOnUse"
       gradientTransform="matrix(0.16129127,-0.71515223,0.70286535,0.26188884,13.608699,55.777953)" />
    <linearGradient
       x1="22.780287"
       y1="26.208443"
       x2="25.829515"
       y2="23.096273"
       id="linearGradient4321"
       xlink:href="#linearGradient5537"
       gradientUnits="userSpaceOnUse"
       gradientTransform="matrix(0.05521067,-0.75591485,0.62637009,0.20554026,19.138274,59.639206)" />
    <linearGradient
       x1="22.780287"
       y1="26.208443"
       x2="26.077471"
       y2="22.997927"
       id="linearGradient4325"
       xlink:href="#linearGradient5537"
       gradientUnits="userSpaceOnUse"
       gradientTransform="matrix(-0.0413458,-0.75679984,0.64741958,0.12423436,23.070088,62.77083)" />
    <linearGradient
       x1="23.039406"
       y1="25.915821"
       x2="26.253416"
       y2="22.725372"
       id="linearGradient4329"
       xlink:href="#linearGradient5537"
       gradientUnits="userSpaceOnUse"
       gradientTransform="matrix(-0.09287088,-0.69074079,0.59529747,0.06587748,28.356167,62.824443)" />
    <linearGradient
       x1="23.039406"
       y1="25.915821"
       x2="26.253416"
       y2="22.725372"
       id="linearGradient4333"
       xlink:href="#linearGradient5537"
       gradientUnits="userSpaceOnUse"
       gradientTransform="matrix(-0.07073452,-0.63975098,0.45340459,0.06101447,33.054412,62.593215)" />
    <linearGradient
       x1="20.933344"
       y1="25.305296"
       x2="26.542828"
       y2="21.170889"
       id="linearGradient4375"
       xlink:href="#linearGradient5537"
       gradientUnits="userSpaceOnUse"
       gradientTransform="matrix(-0.27887968,-0.30701103,0.48235674,-0.18419861,41.614451,61.197743)" />
    <linearGradient
       x1="21.773262"
       y1="25.738026"
       x2="25.605629"
       y2="21.656607"
       id="linearGradient4377"
       xlink:href="#linearGradient5537"
       gradientUnits="userSpaceOnUse"
       gradientTransform="matrix(-0.14252191,-0.62767204,0.45739439,0.00942642,37.194199,63.407624)" />
    <radialGradient
       cx="49.604916"
       cy="49.674488"
       r="7.2365556"
       fx="49.604916"
       fy="49.674488"
       id="radialGradient4379"
       xlink:href="#linearGradient4365"
       gradientUnits="userSpaceOnUse"
       gradientTransform="matrix(-0.85465586,1.4803075,-1.2931063,-0.74657518,156.59149,10.981939)" />
    <linearGradient
       x1="49.875217"
       y1="37.607822"
       x2="45.741295"
       y2="41.672188"
       id="linearGradient4392"
       xlink:href="#linearGradient4386"
       gradientUnits="userSpaceOnUse" />
    <linearGradient
       x1="54.918514"
       y1="46.038033"
       x2="56.407074"
       y2="43.359901"
       id="linearGradient4461"
       xlink:href="#linearGradient10381"
       gradientUnits="userSpaceOnUse"
       gradientTransform="translate(2.0817487,-0.09913089)" />
    <linearGradient
       x1="84.465385"
       y1="48.5914"
       x2="65.205391"
       y2="43.941429"
       id="linearGradient4466"
       xlink:href="#linearGradient5537"
       gradientUnits="userSpaceOnUse"
       gradientTransform="matrix(1.0583702,0,0,1.0583702,40.613615,-6.6454968)" />
    <linearGradient
       x1="65.102982"
       y1="43.973858"
       x2="61.658012"
       y2="48.192196"
       id="linearGradient4468"
       xlink:href="#linearGradient10381"
       gradientUnits="userSpaceOnUse"
       gradientTransform="matrix(1.0583702,0,0,1.0583702,40.613615,-6.6454968)" />
    <linearGradient
       x1="11.00353"
       y1="45.351547"
       x2="62.591721"
       y2="38.610649"
       id="linearGradient4544"
       xlink:href="#linearGradient5537"
       gradientUnits="userSpaceOnUse" />
    <radialGradient
       cx="67.607269"
       cy="36.345589"
       r="6.4435077"
       fx="67.607269"
       fy="36.345589"
       id="radialGradient4562"
       xlink:href="#linearGradient5537"
       gradientUnits="userSpaceOnUse"
       gradientTransform="matrix(1.4047818,0.3764101,-0.60647532,2.2633969,-5.3234846,-67.027583)" />
    <radialGradient
       cx="63.151211"
       cy="35.269764"
       r="6.4435077"
       fx="63.151211"
       fy="35.269764"
       id="radialGradient4570"
       xlink:href="#linearGradient10381"
       gradientUnits="userSpaceOnUse"
       gradientTransform="matrix(1.1538694,0.19867533,-0.36501712,2.1199515,2.864079,-49.797812)" />
    <linearGradient
       x1="70.450516"
       y1="14.61886"
       x2="64.943352"
       y2="14.321467"
       id="linearGradient4597"
       xlink:href="#linearGradient5537"
       gradientUnits="userSpaceOnUse" />
    <linearGradient
       x1="70.450516"
       y1="14.61886"
       x2="64.943352"
       y2="14.321467"
       id="linearGradient4601"
       xlink:href="#linearGradient5537"
       gradientUnits="userSpaceOnUse"
       gradientTransform="matrix(1.1518065,-0.18246538,0.19222095,1.0933501,-16.198551,10.821161)" />
    <linearGradient
       x1="70.450516"
       y1="14.61886"
       x2="64.943352"
       y2="14.321467"
       id="linearGradient4605"
       xlink:href="#linearGradient5537"
       gradientUnits="userSpaceOnUse"
       gradientTransform="matrix(1.1068791,-0.36711106,0.36724302,1.0476144,-18.821626,24.457059)" />
    <linearGradient
       x1="70.450516"
       y1="14.61886"
       x2="64.943352"
       y2="14.321467"
       id="linearGradient4609"
       xlink:href="#linearGradient5537"
       gradientUnits="userSpaceOnUse"
       gradientTransform="matrix(1.0380999,-0.53131947,0.52242877,0.97950577,-18.519181,38.866598)" />
    <linearGradient
       x1="70.450516"
       y1="14.61886"
       x2="64.943352"
       y2="14.321467"
       id="linearGradient4613"
       xlink:href="#linearGradient5537"
       gradientUnits="userSpaceOnUse"
       gradientTransform="matrix(0.91103499,-0.72798836,0.70757166,0.85539799,-13.727445,58.02313)" />
    <linearGradient
       x1="70.450516"
       y1="14.61886"
       x2="64.943352"
       y2="14.321467"
       id="linearGradient4617"
       xlink:href="#linearGradient5537"
       gradientUnits="userSpaceOnUse"
       gradientTransform="matrix(0.69014104,-0.72054658,0.70999205,0.63299496,-0.92238406,63.731906)" />
    <linearGradient
       x1="70.450516"
       y1="14.61886"
       x2="64.943352"
       y2="14.321467"
       id="linearGradient4621"
       xlink:href="#linearGradient5537"
       gradientUnits="userSpaceOnUse"
       gradientTransform="matrix(0.50829293,-0.85855712,0.83528935,0.45504179,9.3342172,78.272335)" />
    <linearGradient
       x1="70.450516"
       y1="14.61886"
       x2="64.943352"
       y2="14.321467"
       id="linearGradient4625"
       xlink:href="#linearGradient5537"
       gradientUnits="userSpaceOnUse"
       gradientTransform="matrix(0.374028,-0.92497843,0.89400056,0.32486048,17.313482,87.354912)" />
    <linearGradient
       x1="70.450516"
       y1="14.61886"
       x2="64.943352"
       y2="14.321467"
       id="linearGradient4629"
       xlink:href="#linearGradient5537"
       gradientUnits="userSpaceOnUse"
       gradientTransform="matrix(0.23668605,-0.87323334,0.85446016,0.19192478,26.534834,88.557073)" />
    <linearGradient
       x1="70.450516"
       y1="14.61886"
       x2="64.943352"
       y2="14.321467"
       id="linearGradient4633"
       xlink:href="#linearGradient5537"
       gradientUnits="userSpaceOnUse"
       gradientTransform="matrix(0.10499196,-0.89862864,0.87344451,0.06349783,35.225246,94.387093)" />
    <linearGradient
       x1="70.450516"
       y1="14.61886"
       x2="64.943352"
       y2="14.321467"
       id="linearGradient4637"
       xlink:href="#linearGradient5537"
       gradientUnits="userSpaceOnUse"
       gradientTransform="matrix(-0.06358192,-0.98826118,0.83700708,-0.06966826,47.383263,104.46669)" />
    <linearGradient
       x1="70.450516"
       y1="14.61886"
       x2="64.943352"
       y2="14.321467"
       id="linearGradient4641"
       xlink:href="#linearGradient5537"
       gradientUnits="userSpaceOnUse"
       gradientTransform="matrix(-0.13821423,-0.97590346,0.67752051,-0.15824529,54.736265,107.6126)" />
    <linearGradient
       x1="70.450516"
       y1="14.61886"
       x2="64.943352"
       y2="14.321467"
       id="linearGradient4645"
       xlink:href="#linearGradient5537"
       gradientUnits="userSpaceOnUse"
       gradientTransform="matrix(-0.29383141,-0.94082615,0.6431198,-0.26546663,66.561115,108.93405)" />
    <linearGradient
       x1="61.917023"
       y1="13.494572"
       x2="80.082893"
       y2="16.305988"
       id="linearGradient4682"
       xlink:href="#linearGradient10381"
       gradientUnits="userSpaceOnUse"
       gradientTransform="matrix(-0.29383141,-0.94082615,0.6431198,-0.26546663,66.561115,108.93405)" />
    <linearGradient
       x1="79.549545"
       y1="37.402405"
       x2="80.237526"
       y2="36.210793"
       id="linearGradient4695"
       xlink:href="#linearGradient4689"
       gradientUnits="userSpaceOnUse" />
    <linearGradient
       x1="75.813263"
       y1="55.174763"
       x2="61.811275"
       y2="44.605495"
       id="linearGradient4708"
       xlink:href="#linearGradient5537"
       gradientUnits="userSpaceOnUse" />
  </defs>
  <g
     id="layer2"
     style="display:none">
    <rect
       width="86"
       height="85"
       rx="6"
       ry="6"
       x="5"
       y="7"
       id="rect3745"
       style="opacity:0.9;fill:url(#ButtonShadow);fill-opacity:1;fill-rule:nonzero;stroke:none;filter:url(#filter3174)" />
  </g>
  <g
     id="layer3">
    <path
       d="m 12,-95.03125 c -5.5110903,0 -10.03125,4.52016 -10.03125,10.03125 l 0,71 c 0,5.5110902 4.5201598,10.03125 10.03125,10.03125 l 72,0 c 5.51109,0 10.03125,-4.5201597 10.03125,-10.03125 l 0,-71 c 0,-5.51109 -4.52016,-10.03125 -10.03125,-10.03125 l -72,0 z"
       transform="scale(1,-1)"
       id="path3786"
       style="opacity:0.07999998;fill:url(#linearGradient3026);fill-opacity:1;fill-rule:nonzero;stroke:none;display:inline" />
    <path
       d="m 12,-94.03125 c -4.971633,0 -9.03125,4.059617 -9.03125,9.03125 l 0,71 c 0,4.9716329 4.0596171,9.03125 9.03125,9.03125 l 72,0 c 4.971633,0 9.03125,-4.059617 9.03125,-9.03125 l 0,-71 c 0,-4.971633 -4.059617,-9.03125 -9.03125,-9.03125 l -72,0 z"
       transform="scale(1,-1)"
       id="path3778"
       style="opacity:0.1;fill:url(#linearGradient3780);fill-opacity:1;fill-rule:nonzero;stroke:none;display:inline" />
    <path
       d="m 12,-93 c -4.4091333,0 -8,3.590867 -8,8 l 0,71 c 0,4.4091333 3.5908667,8 8,8 l 72,0 c 4.409133,0 8,-3.5908667 8,-8 l 0,-71 c 0,-4.409133 -3.590867,-8 -8,-8 l -72,0 z"
       transform="scale(1,-1)"
       id="path3770"
       style="opacity:0.2;fill:url(#linearGradient3772);fill-opacity:1;fill-rule:nonzero;stroke:none;display:inline" />
    <rect
       width="86"
       height="85"
       rx="7"
       ry="7"
       x="5"
       y="-92"
       transform="scale(1,-1)"
       id="rect3723"
       style="opacity:0.3;fill:url(#linearGradient3725);fill-opacity:1;fill-rule:nonzero;stroke:none;display:inline" />
    <rect
       width="84"
       height="84"
       rx="6"
       ry="6"
       x="6"
       y="-91"
       transform="scale(1,-1)"
       id="rect3716"
       style="opacity:0.45;fill:url(#linearGradient3721);fill-opacity:1;fill-rule:nonzero;stroke:none;display:inline" />
  </g>
  <g
     id="layer1">
    <rect
       width="84"
       height="84"
       rx="6"
       ry="6"
       x="6"
       y="6"
       id="rect2419"
       style="fill:url(#radialGradient4020);fill-opacity:1;fill-rule:nonzero;stroke:none" />
    <path
       style="fill:#ffffff;fill-opacity:0.94310763;fill-rule:nonzero;stroke:none;enable-background:new"
       id="rect3364-1"
       inkscape:connector-curvature="0"
       d="m 43.844316,10.728798 c -1.243145,0 -1.488319,0.05358 -1.9884,0.485899 -0.995587,0.847433 -1.562945,3.459951 -1.557176,7.254928 0.0055,3.926674 0.53444,7.662147 1.748828,12.523677 l 0.766609,3.031581 -0.718689,2.282569 C 39.812746,43.725663 36.50322,51.446185 31.626422,60.695754 24.235408,74.718867 18.523478,82.077848 14.545318,82.732676 c -0.640069,0.0987 -0.670767,0.0846 -0.670767,-0.388326 0,-2.367176 4.412212,-8.283976 9.319126,-12.498013 2.506535,-2.152849 -0.410343,-0.714891 -3.78515,1.868295 -3.400929,2.60237 -6.218083,5.977153 -7.091181,8.49294 -0.620823,1.789904 -0.489487,2.42245 0.646837,3.009023 2.030329,1.049916 3.063548,1.0925 4.791328,0.219964 3.358611,-1.696268 7.800247,-7.060902 12.744931,-15.386613 1.603321,-2.699095 2.106425,-3.37281 2.515464,-3.37281 0.144204,0 1.65934,-0.42837 3.353925,-0.94642 6.77288,-2.076701 14.905543,-3.751827 22.878613,-4.732646 l 2.659168,-0.340671 1.341593,0.680201 c 3.49383,1.783135 8.362057,3.511278 11.930401,4.222222 2.413414,0.480821 5.556136,0.570219 6.612038,0.197406 0.665333,-0.236884 2.051351,-1.071066 2.051351,-1.346021 -2.708254,1.290747 -6.790379,-0.30429 -9.86122,-1.225048 -2.024702,-0.648617 -6.48048,-2.421034 -6.731811,-2.670326 5.394905,-1.061191 15.514554,-1.296951 16.60196,2.499433 0.318607,-5.66e-4 0.236827,-1.523968 -0.1198,-2.134514 -0.667717,-1.145801 -2.602568,-2.07078 -5.390245,-2.597574 -2.256979,-0.426955 -7.605044,-0.546246 -11.78667,-0.265087 l -3.713297,0.239707 -1.341564,-0.824873 C 53.807644,50.692379 49.733478,45.347206 46.048301,35.192395 45.495281,33.667579 45.458064,33.45833 45.641037,32.497812 46.28521,29.115695 46.883018,17.686773 46.431605,17.4042 c -0.822155,3.744216 -1.487016,7.48984 -2.323784,10.871394 -0.172767,0 -0.67931,-2.634797 -1.07806,-5.702194 -0.433859,-3.338688 -0.276206,-7.852783 0.311452,-9.392546 0.235439,-0.615904 0.542704,-1.17851 0.694727,-1.238013 1.506512,0.439086 2.345,1.652846 2.563357,3.51861 0.213809,0 0.268718,-0.355895 0.311452,-1.503384 0.09429,-2.525378 -0.571184,-3.227295 -3.066377,-3.227295 z m 0.598917,27.860378 c 0.08541,-0.0282 0.133942,0.163565 0.239599,0.461083 0.130061,0.371121 0.857873,1.889168 1.605096,3.373657 3.215074,6.382678 6.775431,10.569645 11.906442,14.000828 0.259845,0.169211 0.420576,0.373662 0.359345,0.43683 -0.06101,0.05638 -1.105626,0.292725 -2.299825,0.509308 -8.143479,1.476312 -18.281846,4.578956 -23.213996,7.08629 -0.07849,0.04513 -0.143649,-0.0423 -0.143649,-0.163565 0,-0.126903 0.484801,-1.158491 1.101993,-2.280876 4.648788,-8.457129 7.772543,-15.291019 9.534737,-20.919327 0.559011,-1.789902 0.768022,-2.458824 0.910313,-2.503664 z" />
    <path
       d="M 12,6 C 8.676,6 6,8.676 6,12 l 0,2 0,68 0,2 c 0,0.334721 0.04135,0.6507 0.09375,0.96875 0.0487,0.295596 0.09704,0.596915 0.1875,0.875 0.00988,0.03038 0.020892,0.0636 0.03125,0.09375 0.098865,0.287771 0.2348802,0.547452 0.375,0.8125 0.1445918,0.273507 0.3156161,0.535615 0.5,0.78125 0.1843839,0.245635 0.3737765,0.473472 0.59375,0.6875 0.439947,0.428056 0.94291,0.814526 1.5,1.09375 0.278545,0.139612 0.5734731,0.246947 0.875,0.34375 -0.2562018,-0.100222 -0.4867109,-0.236272 -0.71875,-0.375 -0.00741,-0.0044 -0.023866,0.0045 -0.03125,0 -0.031933,-0.0193 -0.062293,-0.04251 -0.09375,-0.0625 -0.120395,-0.0767 -0.2310226,-0.163513 -0.34375,-0.25 -0.1061728,-0.0808 -0.2132809,-0.161112 -0.3125,-0.25 C 8.4783201,88.557317 8.3087904,88.373362 8.15625,88.1875 8.0486711,88.057245 7.9378561,87.922215 7.84375,87.78125 7.818661,87.74287 7.805304,87.69538 7.78125,87.65625 7.716487,87.553218 7.6510225,87.451733 7.59375,87.34375 7.4927417,87.149044 7.3880752,86.928049 7.3125,86.71875 7.30454,86.69694 7.288911,86.6782 7.28125,86.65625 7.2494249,86.5643 7.2454455,86.469419 7.21875,86.375 7.1884177,86.268382 7.1483606,86.171969 7.125,86.0625 7.0521214,85.720988 7,85.364295 7,85 L 7,83 7,15 7,13 C 7,10.218152 9.2181517,8 12,8 l 2,0 68,0 2,0 c 2.781848,0 5,2.218152 5,5 l 0,2 0,68 0,2 c 0,0.364295 -0.05212,0.720988 -0.125,1.0625 -0.04415,0.206893 -0.08838,0.397658 -0.15625,0.59375 -0.0077,0.02195 -0.0233,0.04069 -0.03125,0.0625 -0.06274,0.173739 -0.138383,0.367449 -0.21875,0.53125 -0.04158,0.0828 -0.07904,0.169954 -0.125,0.25 -0.0546,0.09721 -0.126774,0.18835 -0.1875,0.28125 -0.09411,0.140965 -0.204921,0.275995 -0.3125,0.40625 -0.143174,0.17445 -0.303141,0.346998 -0.46875,0.5 -0.01117,0.0102 -0.01998,0.02115 -0.03125,0.03125 -0.138386,0.125556 -0.285091,0.234436 -0.4375,0.34375 -0.102571,0.07315 -0.204318,0.153364 -0.3125,0.21875 -0.0074,0.0045 -0.02384,-0.0044 -0.03125,0 -0.232039,0.138728 -0.462548,0.274778 -0.71875,0.375 0.301527,-0.0968 0.596455,-0.204138 0.875,-0.34375 0.55709,-0.279224 1.060053,-0.665694 1.5,-1.09375 0.219973,-0.214028 0.409366,-0.441865 0.59375,-0.6875 0.184384,-0.245635 0.355408,-0.507743 0.5,-0.78125 0.14012,-0.265048 0.276135,-0.524729 0.375,-0.8125 0.01041,-0.03078 0.02133,-0.06274 0.03125,-0.09375 0.09046,-0.278085 0.1388,-0.579404 0.1875,-0.875 C 89.95865,84.6507 90,84.334721 90,84 l 0,-2 0,-68 0,-2 C 90,8.676 87.324,6 84,6 L 12,6 z"
       id="rect3728"
       style="opacity:0.35;fill:url(#linearGradient3188);fill-opacity:1;fill-rule:nonzero;stroke:none" />
    <path
       d="M 12,90 C 8.676,90 6,87.324 6,84 L 6,82 6,14 6,12 c 0,-0.334721 0.04135,-0.6507 0.09375,-0.96875 0.0487,-0.295596 0.09704,-0.596915 0.1875,-0.875 C 6.29113,10.12587 6.302142,10.09265 6.3125,10.0625 6.411365,9.774729 6.5473802,9.515048 6.6875,9.25 6.8320918,8.976493 7.0031161,8.714385 7.1875,8.46875 7.3718839,8.223115 7.5612765,7.995278 7.78125,7.78125 8.221197,7.353194 8.72416,6.966724 9.28125,6.6875 9.559795,6.547888 9.8547231,6.440553 10.15625,6.34375 9.9000482,6.443972 9.6695391,6.580022 9.4375,6.71875 c -0.00741,0.0044 -0.023866,-0.0045 -0.03125,0 -0.031933,0.0193 -0.062293,0.04251 -0.09375,0.0625 -0.120395,0.0767 -0.2310226,0.163513 -0.34375,0.25 -0.1061728,0.0808 -0.2132809,0.161112 -0.3125,0.25 C 8.4783201,7.442683 8.3087904,7.626638 8.15625,7.8125 8.0486711,7.942755 7.9378561,8.077785 7.84375,8.21875 7.818661,8.25713 7.805304,8.30462 7.78125,8.34375 7.716487,8.446782 7.6510225,8.548267 7.59375,8.65625 7.4927417,8.850956 7.3880752,9.071951 7.3125,9.28125 7.30454,9.30306 7.288911,9.3218 7.28125,9.34375 7.2494249,9.4357 7.2454455,9.530581 7.21875,9.625 7.1884177,9.731618 7.1483606,9.828031 7.125,9.9375 7.0521214,10.279012 7,10.635705 7,11 l 0,2 0,68 0,2 c 0,2.781848 2.2181517,5 5,5 l 2,0 68,0 2,0 c 2.781848,0 5,-2.218152 5,-5 l 0,-2 0,-68 0,-2 C 89,10.635705 88.94788,10.279012 88.875,9.9375 88.83085,9.730607 88.78662,9.539842 88.71875,9.34375 88.71105,9.3218 88.69545,9.30306 88.6875,9.28125 88.62476,9.107511 88.549117,8.913801 88.46875,8.75 88.42717,8.6672 88.38971,8.580046 88.34375,8.5 88.28915,8.40279 88.216976,8.31165 88.15625,8.21875 88.06214,8.077785 87.951329,7.942755 87.84375,7.8125 87.700576,7.63805 87.540609,7.465502 87.375,7.3125 87.36383,7.3023 87.35502,7.29135 87.34375,7.28125 87.205364,7.155694 87.058659,7.046814 86.90625,6.9375 86.803679,6.86435 86.701932,6.784136 86.59375,6.71875 c -0.0074,-0.0045 -0.02384,0.0044 -0.03125,0 -0.232039,-0.138728 -0.462548,-0.274778 -0.71875,-0.375 0.301527,0.0968 0.596455,0.204138 0.875,0.34375 0.55709,0.279224 1.060053,0.665694 1.5,1.09375 0.219973,0.214028 0.409366,0.441865 0.59375,0.6875 0.184384,0.245635 0.355408,0.507743 0.5,0.78125 0.14012,0.265048 0.276135,0.524729 0.375,0.8125 0.01041,0.03078 0.02133,0.06274 0.03125,0.09375 0.09046,0.278085 0.1388,0.579404 0.1875,0.875 C 89.95865,11.3493 90,11.665279 90,12 l 0,2 0,68 0,2 c 0,3.324 -2.676,6 -6,6 l -72,0 z"
       id="path3615"
       style="opacity:0.2;fill:url(#radialGradient3619);fill-opacity:1;fill-rule:nonzero;stroke:none" />
    <path
       d="m 11.186441,5.8983051 c -3.3240003,0 -6.0000003,2.2353995 -6.0000003,5.0121069 l 0,23.781401 c 11.8231963,3.948544 26.3214983,6.291238 42.0000003,6.291238 15.678502,0 30.176804,-2.342694 42,-6.291238 l 0,-23.781401 c 0,-2.7767074 -2.676,-5.0121069 -6,-5.0121069 l -72,0 z"
       id="rect4011"
       style="opacity:0.6;fill:url(#linearGradient4018);fill-opacity:1;fill-rule:nonzero;stroke:none"
       inkscape:connector-curvature="0" />
  </g>
  <g
     id="layer5"
     style="display:none">
    <rect
       width="66"
       height="66"
       rx="12"
       ry="12"
       x="15"
       y="15"
       clip-path="url(#clipPath3613)"
       id="rect3171"
       style="opacity:0.1;fill:url(#linearGradient3613);fill-opacity:1;fill-rule:nonzero;stroke:#ffffff;stroke-width:0.5;stroke-linecap:round;stroke-linejoin:miter;stroke-miterlimit:4;stroke-opacity:1;stroke-dasharray:none;stroke-dashoffset:0;filter:url(#filter3794)" />
  </g>
</svg>
