<?xml version="1.0" encoding="UTF-8" standalone="no"?>
<svg
   xmlns:dc="http://purl.org/dc/elements/1.1/"
   xmlns:cc="http://creativecommons.org/ns#"
   xmlns:rdf="http://www.w3.org/1999/02/22-rdf-syntax-ns#"
   xmlns:svg="http://www.w3.org/2000/svg"
   xmlns="http://www.w3.org/2000/svg"
   xmlns:sodipodi="http://sodipodi.sourceforge.net/DTD/sodipodi-0.dtd"
   xmlns:inkscape="http://www.inkscape.org/namespaces/inkscape"
   viewBox="0 0 48 48"
   version="1.1"
   id="svg45"
   sodipodi:docname="booksorg.svg"
   inkscape:version="0.92.2 5c3e80d, 2017-08-06">
  <metadata
     id="metadata49">
    <rdf:RDF>
      <cc:Work
         rdf:about="">
        <dc:format>image/svg+xml</dc:format>
        <dc:type
           rdf:resource="http://purl.org/dc/dcmitype/StillImage" />
        <dc:title></dc:title>
      </cc:Work>
    </rdf:RDF>
  </metadata>
  <sodipodi:namedview
     pagecolor="#ffffff"
     bordercolor="#666666"
     borderopacity="1"
     objecttolerance="10"
     gridtolerance="10"
     guidetolerance="10"
     inkscape:pageopacity="0"
     inkscape:pageshadow="2"
     inkscape:window-width="1366"
     inkscape:window-height="715"
     id="namedview47"
     showgrid="false"
     inkscape:zoom="10.63"
     inkscape:cx="24"
     inkscape:cy="24"
     inkscape:window-x="0"
     inkscape:window-y="24"
     inkscape:window-maximized="1"
     inkscape:current-layer="svg45" />
  <defs
     id="defs7">
    <linearGradient
       id="linearGradient3764"
       x1="1"
       x2="47"
       gradientUnits="userSpaceOnUse"
       gradientTransform="matrix(0,-1,1,0,-1.5e-6,47.999998)">
      <stop
         style="stop-color:#7fa935;stop-opacity:1"
         id="stop2" />
      <stop
         offset="1"
         style="stop-color:#89b83a;stop-opacity:1"
         id="stop4" />
    </linearGradient>
  </defs>
  <g
     id="g15">
    <path
       d="m 36.31 5 c 5.859 4.062 9.688 10.831 9.688 18.5 c 0 12.426 -10.07 22.5 -22.5 22.5 c -7.669 0 -14.438 -3.828 -18.5 -9.688 c 1.037 1.822 2.306 3.499 3.781 4.969 c 4.085 3.712 9.514 5.969 15.469 5.969 c 12.703 0 23 -10.298 23 -23 c 0 -5.954 -2.256 -11.384 -5.969 -15.469 c -1.469 -1.475 -3.147 -2.744 -4.969 -3.781 z m 4.969 3.781 c 3.854 4.113 6.219 9.637 6.219 15.719 c 0 12.703 -10.297 23 -23 23 c -6.081 0 -11.606 -2.364 -15.719 -6.219 c 4.16 4.144 9.883 6.719 16.219 6.719 c 12.703 0 23 -10.298 23 -23 c 0 -6.335 -2.575 -12.06 -6.719 -16.219 z"
       style="opacity:0.05"
       id="path9" />
    <path
       d="m 41.28 8.781 c 3.712 4.085 5.969 9.514 5.969 15.469 c 0 12.703 -10.297 23 -23 23 c -5.954 0 -11.384 -2.256 -15.469 -5.969 c 4.113 3.854 9.637 6.219 15.719 6.219 c 12.703 0 23 -10.298 23 -23 c 0 -6.081 -2.364 -11.606 -6.219 -15.719 z"
       style="opacity:0.1"
       id="path11" />
    <path
       d="m 31.25 2.375 c 8.615 3.154 14.75 11.417 14.75 21.13 c 0 12.426 -10.07 22.5 -22.5 22.5 c -9.708 0 -17.971 -6.135 -21.12 -14.75 a 23 23 0 0 0 44.875 -7 a 23 23 0 0 0 -16 -21.875 z"
       style="opacity:0.2"
       id="path13" />
  </g>
  <g
     id="g19">
    <path
       d="m 24 1 c 12.703 0 23 10.297 23 23 c 0 12.703 -10.297 23 -23 23 -12.703 0 -23 -10.297 -23 -23 0 -12.703 10.297 -23 23 -23 z"
       style="fill:#288217;fill-opacity:1"
       id="path17" />
  </g>
  <g
     id="g43">
    <path
       d="m 40.03 7.531 c 3.712 4.084 5.969 9.514 5.969 15.469 0 12.703 -10.297 23 -23 23 c -5.954 0 -11.384 -2.256 -15.469 -5.969 4.178 4.291 10.01 6.969 16.469 6.969 c 12.703 0 23 -10.298 23 -23 0 -6.462 -2.677 -12.291 -6.969 -16.469 z"
       style="opacity:0.1"
       id="path41" />
  </g>
  <g
     transform="matrix(1.4117817,0,0,1.4117817,-9.7386988,-11.94727)"
     id="g39">
    <g
       id="g37">
      <!-- color: #c34545 -->
      <g
         id="g35">
        <path
           inkscape:connector-curvature="0"
           d="m 36.883,27.625 c -0.285,-0.535 -0.727,-0.977 -4.359,-0.867 -1.234,0.035 -2.078,0.078 -2.785,0.141 -1.289,-0.738 -2.559,-1.68 -3.527,-2.836 -1.109,-1.328 -1.793,-2.863 -2.234,-4.371 0.691,-3.082 0.594,-5.141 0.563,-5.582 -0.004,-0.059 -0.008,-0.094 -0.008,-0.094 0,0 -0.004,0.012 -0.004,0.012 -0.043,-0.301 -0.215,-1.406 -0.563,-1.754 -0.406,-0.398 -0.762,-0.406 -1.168,0.285 -0.402,0.691 -0.586,2.621 -0.254,4.477 0.105,0.602 0.328,1.465 0.629,2.41 -0.246,0.883 -0.52,1.809 -0.813,2.727 -0.918,2.859 -2.582,5.805 -3.992,8.08 -0.258,0.082 -1.879,0.664 -3.863,2.398 -2.164,1.895 -1.504,2.844 -0.992,3.133 0.516,0.293 1.945,1.422 6.828,-6.988 1.707,-2.945 2.727,-5.629 3.336,-7.887 0.602,1.586 1.375,3.199 2.242,4.207 0.605,0.703 1.43,1.371 2.348,1.965 -0.77,0.125 -1.617,0.297 -2.969,0.547 -3.34,0.621 -4.992,1.969 -4.992,1.969 0,0 4.484,-1.445 8.91,-1.945 1.422,0.785 2.961,1.387 4.266,1.652 2.496,0.512 3.258,-0.684 3.258,-0.684 0.102,-0.109 0.441,-0.547 0.148,-0.996 m 0,0"
           style="fill:#ffffff;fill-opacity:1;fill-rule:nonzero;stroke:none"
           id="path33" />
      </g>
    </g>
  </g>
</svg>
